<svg xmlns="http://www.w3.org/2000/svg" viewBox="0 0 81.45 108.88"><defs><style>.cls-1,.cls-2{fill:#fff;}.cls-2{opacity:0.5;}</style></defs><title>Recurso 17</title><g id="Capa_2" data-name="Capa 2"><g id="Capa_1-2" data-name="Capa 1"><polygon class="cls-1" points="40.72 0 47.51 20.88 69.46 20.88 51.7 33.79 58.49 54.67 40.72 41.76 22.96 54.67 29.75 33.79 11.98 20.88 33.94 20.88 40.72 0"/><path class="cls-1" d="M40.72,108.88a36.83,36.83,0,0,0,8.84-1.09v-7.2H31.88v7.2A36.83,36.83,0,0,0,40.72,108.88Z"/><path class="cls-1" d="M81.37,61.63c-.52-8-3.73-29.47-4.46-34.3l-4.56,3.32c1.1,7.42,3.59,24.61,4,31.3a31.72,31.72,0,0,1-8.81,23.89,36.86,36.86,0,0,1-53.69,0A31.72,31.72,0,0,1,5.07,62c.43-6.69,2.92-23.88,4-31.3L4.54,27.33C3.81,32.16.6,53.65.08,61.63A36.65,36.65,0,0,0,10.23,89.26a41.87,41.87,0,0,0,61,0A36.69,36.69,0,0,0,81.37,61.63Z"/><path class="cls-2" d="M5,64.89a31.92,31.92,0,0,0,8.86,21,36.86,36.86,0,0,0,53.69,0,31.92,31.92,0,0,0,8.86-21Z"/></g></g></svg>