<?xml version="1.0" standalone="no"?>
<!DOCTYPE svg PUBLIC "-//W3C//DTD SVG 20010904//EN"
 "http://www.w3.org/TR/2001/REC-SVG-20010904/DTD/svg10.dtd">
<svg version="1.0" xmlns="http://www.w3.org/2000/svg"
 width="228.000000pt" height="228.000000pt" viewBox="0 0 228.000000 228.000000"
 preserveAspectRatio="xMidYMid meet">
<metadata>
Created by potrace 1.11, written by Peter Selinger 2001-2013
</metadata>
<g transform="translate(0.000000,228.000000) scale(0.100000,-0.100000)"
fill="#000000" stroke="none">
<path d="M1137 2263 c-2 -4 -35 -101 -71 -215 l-67 -208 -229 -2 -228 -3 124
-90 c69 -49 150 -108 182 -131 40 -29 56 -47 54 -60 -2 -10 -32 -108 -68 -217
-35 -109 -64 -200 -64 -202 0 -5 129 85 250 175 52 38 102 74 110 79 11 6 61
-24 193 -120 98 -71 182 -129 187 -129 4 0 -9 51 -30 113 -48 142 -100 304
-100 311 0 5 116 93 280 211 l83 60 -228 5 -228 5 -68 209 c-38 115 -71 211
-73 213 -2 2 -6 1 -9 -4z"/>
<path d="M1846 1672 c-45 -33 -48 -37 -42 -71 5 -30 42 -298 61 -446 3 -22 8
-69 11 -105 3 -36 7 -74 9 -86 3 -11 -2 -30 -10 -41 -10 -14 -11 -23 -5 -26 6
-3 5 -4 -2 -2 -7 1 -12 8 -10 15 2 8 -5 10 -22 6 -14 -3 -27 -2 -31 4 -4 6
-14 5 -29 -1 -16 -8 -30 -8 -42 -1 -11 6 -27 7 -42 1 -13 -5 -30 -5 -40 0 -9
5 -26 5 -37 1 -11 -4 -26 -3 -32 2 -9 7 -13 7 -13 1 0 -6 -22 -9 -50 -7 -32 2
-48 -1 -44 -7 3 -6 13 -8 23 -5 12 5 11 2 -3 -9 -11 -8 -25 -15 -30 -15 -6 0
-5 4 2 8 10 7 8 13 -7 26 -18 17 -20 17 -30 -1 -6 -10 -11 -13 -11 -7 0 19
-28 24 -34 7 -5 -11 -2 -14 9 -9 9 3 13 2 10 -4 -3 -6 -1 -10 6 -10 7 0 10 -3
7 -6 -10 -9 -49 16 -43 27 4 5 -1 9 -10 9 -9 0 -13 -4 -10 -10 9 -15 -2 -12
-19 6 -9 9 -16 11 -16 4 0 -6 -5 -8 -11 -4 -14 9 -90 -16 -83 -28 3 -4 -2 -11
-10 -14 -9 -3 -13 -10 -10 -15 3 -5 -2 -6 -11 -3 -11 5 -14 2 -9 -10 3 -9 10
-13 15 -10 5 3 6 -2 3 -11 -7 -18 -7 -18 -23 13 -10 19 -9 23 13 34 14 6 23
15 20 19 -3 5 6 13 20 19 14 5 26 12 26 14 0 3 -6 3 -14 0 -26 -10 -81 -11
-98 -3 -11 6 -18 5 -21 -4 -3 -9 -7 -9 -19 0 -8 7 -18 10 -21 6 -11 -10 -8
-23 4 -20 6 1 14 -4 16 -10 7 -18 -22 -27 -44 -14 -15 9 -13 10 10 5 17 -4 27
-2 27 6 0 6 -5 8 -10 5 -6 -3 -13 1 -16 9 -3 9 -13 16 -21 16 -9 0 -11 -5 -7
-12 6 -9 3 -9 -9 0 -9 8 -21 11 -27 7 -5 -3 -10 0 -10 7 0 10 -2 10 -8 1 -7
-11 -57 -11 -68 0 -3 3 -17 1 -31 -4 -15 -5 -31 -6 -41 0 -9 5 -26 5 -39 0
-13 -5 -25 -4 -28 1 -4 6 -14 7 -23 2 -22 -10 -93 -9 -111 2 -10 7 -12 3 -6
-15 l7 -24 -17 23 c-9 12 -21 20 -26 17 -13 -9 -11 -26 2 -22 6 1 14 -4 16
-10 7 -18 -22 -27 -44 -14 -15 9 -13 10 10 5 17 -4 27 -2 27 6 0 6 -5 8 -10 5
-6 -3 -13 1 -16 9 -3 9 -13 16 -21 16 -9 0 -11 -5 -7 -12 5 -9 2 -8 -9 1 -10
8 -20 11 -24 8 -3 -4 -13 -1 -21 6 -13 10 -14 9 -8 -1 6 -9 1 -11 -18 -8 -14
3 -30 7 -36 11 -6 3 -13 -1 -16 -9 -5 -14 -8 -14 -20 -1 -12 11 -14 30 -9 82
8 92 57 474 69 543 17 94 16 98 -27 130 -23 17 -46 30 -53 30 -7 0 -14 -26
-19 -62 -9 -75 -9 -75 -29 -208 -8 -58 -18 -130 -21 -160 -3 -30 -8 -64 -10
-76 -12 -58 -20 -171 -18 -269 4 -324 208 -603 534 -730 34 -14 76 -27 93 -31
31 -5 32 -6 32 -70 1 -36 3 -66 5 -69 20 -19 228 -27 317 -12 49 9 52 13 52
80 l0 62 61 18 c138 40 291 134 387 236 131 138 213 332 215 505 0 64 -11 241
-18 266 -1 3 -5 34 -9 70 -5 36 -10 72 -11 80 -2 8 -6 38 -9 65 -17 124 -45
307 -48 310 -2 2 -25 -13 -52 -33z m-981 -802 c-4 -7 22 -17 63 -26 8 -1 17
-5 20 -9 9 -8 -36 0 -72 14 -16 7 -26 14 -22 18 3 4 -1 18 -10 32 l-15 26 20
-24 c12 -12 19 -27 16 -31z m63 25 c-3 -3 -9 2 -12 12 -6 14 -5 15 5 6 7 -7
10 -15 7 -18z m737 -25 c-3 -4 7 -11 22 -15 21 -5 24 -8 12 -16 -7 -5 -18 -9
-24 -9 -5 0 -4 4 3 9 10 6 8 10 -9 14 -13 4 -20 9 -16 13 4 4 0 19 -9 33 l-15
26 20 -24 c12 -12 19 -27 16 -31z m63 25 c-3 -3 -9 2 -12 12 -6 14 -5 15 5 6
7 -7 10 -15 7 -18z m66 10 c-4 -8 -11 -15 -16 -15 -6 0 -5 6 2 15 7 8 14 15
16 15 2 0 1 -7 -2 -15z m-1304 -17 c0 -6 -7 -5 -16 3 -14 11 -15 10 -12 -7 1
-10 8 -22 13 -26 6 -5 6 -8 -1 -8 -6 0 -19 10 -30 22 -10 12 -14 18 -8 15 7
-4 14 0 18 8 6 16 36 10 36 -7z m55 12 c3 -5 1 -10 -4 -10 -6 0 -11 5 -11 10
0 6 2 10 4 10 3 0 8 -4 11 -10z m151 -5 c-11 -8 -24 -15 -30 -15 -5 0 -1 7 10
15 10 8 24 14 29 14 6 0 1 -6 -9 -14z m90 3 c5 -8 2 -9 -10 -5 -15 6 -17 3
-12 -17 3 -14 1 -28 -5 -31 -7 -5 -5 -15 5 -30 13 -20 13 -25 1 -35 -15 -12
-39 -5 -30 9 2 5 -7 13 -20 19 -22 10 -24 14 -13 31 7 11 14 18 17 16 2 -3 -2
-12 -10 -22 -12 -15 -12 -16 4 -10 10 4 16 3 13 -2 -3 -5 1 -12 10 -15 8 -3
12 -10 9 -16 -3 -5 -2 -10 3 -10 18 0 21 13 6 34 -8 13 -11 26 -7 29 3 4 1 7
-5 7 -7 0 -12 5 -12 11 0 8 6 7 16 -2 15 -12 16 -11 10 8 -11 35 13 59 30 31z
m53 -32 c0 -6 -3 -5 -6 2 -2 6 -9 10 -14 7 -5 -4 -6 2 -2 11 5 13 3 15 -7 9
-9 -6 -11 -4 -5 5 6 10 11 9 22 -5 7 -11 13 -24 12 -29z m80 0 c0 -6 -3 -5 -6
2 -2 6 -9 10 -14 7 -5 -4 -6 1 -3 10 5 11 2 14 -12 9 -16 -5 -16 -4 -4 5 11 8
18 7 28 -6 6 -9 12 -22 11 -27z m106 34 c3 -5 1 -10 -4 -10 -6 0 -11 5 -11 10
0 6 2 10 4 10 3 0 8 -4 11 -10z m136 -32 c-10 -11 -11 -10 -6 3 4 10 2 20 -4
24 -7 3 -11 -3 -12 -17 0 -13 -3 -17 -6 -10 -3 7 -2 20 1 29 6 15 8 15 23 0
14 -14 15 -19 4 -29z m34 24 c-3 -3 -11 0 -18 7 -9 10 -8 11 6 5 10 -3 15 -9
12 -12z m108 11 c4 -3 0 -16 -8 -29 -13 -20 -12 -23 1 -28 8 -3 13 -10 9 -15
-3 -5 4 -13 16 -16 11 -4 18 -9 16 -12 -8 -7 -48 17 -43 26 3 4 -4 12 -15 19
-21 14 -25 3 -6 -18 10 -12 9 -12 -4 -2 -14 10 -18 10 -23 -3 -3 -9 -10 -13
-16 -10 -5 3 -10 1 -10 -5 0 -8 10 -10 28 -6 22 5 24 4 9 -5 -21 -12 -51 -5
-45 12 2 6 7 9 12 7 4 -2 14 10 22 25 8 15 19 25 24 22 5 -3 14 4 20 15 7 13
7 20 0 20 -5 0 -10 -5 -10 -12 0 -6 -3 -9 -6 -5 -7 7 4 27 15 27 4 0 11 -3 14
-7z m144 -13 c-1 -11 -5 -20 -9 -20 -10 0 -10 4 -2 24 8 22 13 20 11 -4z m143
10 c0 -5 -5 -10 -11 -10 -5 0 -7 5 -4 10 3 6 8 10 11 10 2 0 4 -4 4 -10z m49
-34 c0 -6 -3 -5 -6 2 -2 6 -9 10 -14 7 -5 -4 -6 2 -2 11 5 13 3 15 -7 9 -9 -6
-11 -4 -5 5 6 10 11 9 22 -5 7 -11 13 -24 12 -29z m80 0 c0 -6 -3 -5 -6 2 -2
6 -9 10 -14 7 -5 -4 -6 1 -3 10 5 11 2 14 -12 9 -16 -5 -16 -4 -4 5 11 8 18 7
28 -6 6 -9 12 -22 11 -27z m-1194 -27 c-2 -12 -7 -24 -10 -28 -3 -3 -3 10 0
28 5 30 4 33 -10 21 -10 -8 -15 -9 -15 -1 0 6 5 11 10 11 6 0 10 8 11 18 0 13
2 12 9 -5 5 -12 7 -32 5 -44z m195 41 c-24 -15 -36 -11 -14 4 10 8 21 12 24
10 2 -3 -2 -9 -10 -14z m250 9 c0 -5 -4 -8 -9 -5 -5 3 -11 -1 -15 -9 -3 -8 0
-15 6 -15 6 0 9 -3 5 -6 -13 -14 -27 7 -17 27 11 20 30 26 30 8z m29 -51 c-8
-20 -9 -19 -4 6 6 26 4 28 -9 17 -11 -9 -16 -10 -16 -2 0 6 5 11 10 11 6 0 10
8 11 18 0 13 2 12 9 -5 6 -14 6 -32 -1 -45z m342 47 c5 4 6 -2 2 -11 -4 -12
-3 -15 5 -10 17 10 26 -19 13 -41 -9 -15 -10 -13 -5 11 5 20 3 27 -4 22 -10
-6 -33 23 -31 41 0 4 3 2 6 -5 2 -6 9 -10 14 -7z m179 -5 c-24 -15 -36 -11
-14 4 10 8 21 12 24 10 2 -3 -2 -9 -10 -14z m30 -10 c-6 -12 -14 -20 -17 -17
-2 3 1 14 8 26 17 26 24 19 9 -9z m201 11 c-8 -15 -6 -20 14 -29 27 -12 32
-27 13 -38 -7 -5 -9 -2 -5 8 3 10 -3 19 -19 27 -21 9 -23 14 -14 31 6 11 13
20 16 20 2 0 0 -8 -5 -19z m70 -11 c5 0 9 -5 9 -11 0 -8 -6 -7 -17 2 -15 12
-16 12 -9 -6 5 -14 4 -17 -3 -10 -6 6 -7 22 -4 35 6 19 8 21 11 8 2 -10 8 -18
13 -18z m45 3 c-6 -6 -36 9 -36 18 0 5 9 4 20 -3 10 -7 18 -14 16 -15z m-1443
2 c4 -8 3 -16 -1 -19 -4 -3 -9 4 -9 15 -2 23 3 25 10 4z m820 -9 c-10 -13 -20
-22 -22 -20 -4 4 29 44 36 44 2 0 -4 -11 -14 -24z m172 -3 c5 1 11 -7 12 -18
1 -16 1 -16 -3 -2 -3 9 -9 15 -14 12 -4 -3 -19 4 -31 16 l-24 20 25 -15 c14
-8 29 -14 35 -13z m-839 2 c10 -8 15 -14 9 -14 -5 0 -19 6 -29 14 -11 8 -15
15 -10 15 6 0 19 -7 30 -15z m67 -2 c-6 -16 -5 -16 10 -4 9 7 17 9 17 3 0 -14
-28 -23 -35 -12 -4 6 -3 15 0 20 10 16 15 11 8 -7z m413 2 c10 -8 15 -14 9
-14 -5 0 -19 6 -29 14 -11 8 -15 15 -10 15 6 0 19 -7 30 -15z m67 -8 c3 -8 2
-20 -3 -26 -5 -9 -7 -4 -7 13 0 29 2 32 10 13z m211 -27 c-6 -5 -24 21 -24 34
0 6 6 1 14 -10 8 -10 12 -21 10 -24z m165 -2 c10 -21 11 -36 4 -47 -14 -22 -5
-41 15 -34 14 4 15 3 2 -6 -16 -11 -30 -2 -33 20 -2 8 -6 20 -11 27 -4 7 -3
19 3 26 8 9 6 18 -4 32 -15 18 -16 18 -13 -6 2 -20 -2 -25 -22 -27 -22 -1 -23
-1 -2 4 12 2 20 9 16 14 -9 15 4 39 18 34 7 -3 19 -19 27 -37z m65 18 c-3 -9
-10 -16 -15 -16 -5 0 -4 9 3 20 14 22 21 20 12 -4z m-879 -5 c-3 -6 -11 -11
-16 -11 -5 0 -4 6 3 14 14 16 24 13 13 -3z m125 9 c-8 -5 -11 -10 -6 -10 5 0
3 -7 -4 -15 -10 -12 -16 -13 -24 -5 -8 8 -6 15 8 26 11 8 25 14 30 14 6 0 4
-5 -4 -10z m719 -35 c0 -5 -4 -3 -9 5 -5 8 -9 22 -9 30 0 16 17 -16 18 -35z
m83 38 c-6 -2 -10 -9 -7 -14 4 -5 -1 -6 -10 -2 -13 5 -14 7 -3 14 7 5 18 8 23
8 6 0 4 -3 -3 -6z m243 -39 c-8 -6 -12 -14 -8 -18 4 -4 -1 -4 -10 0 -12 4 -17
2 -15 -6 4 -18 -21 -24 -28 -6 -3 8 -1 23 5 33 9 15 10 13 5 -9 -4 -18 -2 -28
6 -28 6 0 8 5 5 10 -3 6 1 13 10 16 13 5 13 9 3 23 -10 13 -10 14 2 4 18 -17
38 -17 22 -1 -7 7 -12 16 -12 22 0 5 7 1 15 -10 12 -16 12 -20 0 -30z m-1405
28 c0 -4 -10 -9 -22 -9 -18 -2 -20 0 -8 7 18 12 30 13 30 2z m115 -10 c0 -7
-4 -11 -8 -9 -5 1 -15 -9 -22 -23 -8 -14 -14 -21 -15 -17 0 17 21 47 31 42 5
-4 9 -2 9 4 0 5 -5 12 -10 14 -6 3 -5 4 2 3 7 -2 13 -8 13 -14z m61 7 c12 -20
-11 -30 -32 -13 -18 15 -18 15 4 4 13 -6 22 -7 22 -1 0 5 -6 12 -12 14 -10 4
-10 6 -1 6 6 1 15 -4 19 -10z m234 0 c13 -9 12 -10 -3 -5 -11 3 -20 0 -23 -9
-4 -8 -10 -15 -15 -15 -5 0 -4 9 3 20 15 23 18 24 38 9z m170 -10 c-7 -11 -14
-19 -16 -16 -7 7 7 37 17 37 6 0 5 -9 -1 -21z m70 11 c0 -5 -2 -10 -4 -10 -3
0 -8 5 -11 10 -3 6 -1 10 4 10 6 0 11 -4 11 -10z m49 -7 c-12 -15 -12 -16 4
-10 11 4 16 3 12 -3 -3 -6 -1 -10 6 -10 7 0 10 -3 7 -6 -12 -11 -47 16 -42 31
4 8 11 15 16 15 6 0 4 -8 -3 -17z m576 -9 c-17 -7 -29 -16 -27 -21 1 -4 -3 -8
-10 -8 -6 0 -12 6 -14 13 -1 7 0 8 3 2 2 -5 9 -10 14 -10 6 0 7 5 4 11 -4 6 2
13 14 16 11 3 18 9 15 14 -3 5 3 6 13 2 14 -6 13 -9 -12 -19z m-1243 3 c-25
-14 -20 -29 6 -21 13 4 12 2 -2 -6 -15 -10 -20 -9 -27 1 -9 14 14 39 35 39 6
-1 1 -6 -12 -13z m483 -7 c-5 -16 -3 -19 12 -13 12 4 10 0 -7 -15 -23 -19 -26
-20 -37 -5 -7 9 -13 22 -13 27 1 6 7 0 15 -14 8 -14 15 -20 16 -15 1 6 2 15 4
20 1 6 3 16 3 23 1 6 5 12 8 12 3 0 3 -9 -1 -20z m105 3 c0 4 10 2 23 -5 12
-6 28 -13 35 -14 8 -1 17 -5 20 -8 10 -11 -32 -1 -58 14 -14 7 -27 12 -30 11
-2 -1 -6 3 -8 11 -2 9 0 8 7 -2 6 -8 11 -11 11 -7z m338 -8 c0 -14 -4 -28 -9
-31 -5 -3 -6 1 -3 9 3 8 1 18 -5 22 -7 3 -11 -2 -11 -14 0 -11 -4 -22 -9 -25
-6 -4 -6 5 -2 21 5 16 13 27 20 26 6 -2 11 2 11 7 0 6 2 10 4 10 2 0 4 -11 4
-25z m-748 -16 c0 -12 4 -17 11 -14 6 4 8 14 5 22 -3 8 -2 12 3 9 11 -7 11
-55 -1 -62 -5 -3 -4 -12 3 -20 9 -11 9 -18 1 -26 -6 -6 -8 -17 -5 -24 3 -8 0
-14 -7 -14 -6 0 -9 4 -5 9 3 5 1 12 -5 16 -15 9 -12 41 5 55 18 15 20 31 4 28
-7 -2 -15 9 -20 25 -4 16 -4 25 2 21 5 -3 9 -14 9 -25z m246 19 c5 -8 2 -9 -9
-5 -10 3 -17 2 -17 -2 0 -5 6 -12 13 -14 9 -4 9 -6 0 -6 -15 -1 -26 16 -18 29
8 13 22 13 31 -2z m706 -25 c21 -27 25 -39 17 -49 -20 -25 -69 -2 -68 31 0 6
5 1 12 -10 17 -28 42 -30 44 -4 2 17 -1 18 -13 9 -10 -9 -14 -9 -14 -1 0 6 5
11 12 11 23 0 -3 13 -32 17 -24 2 -28 0 -23 -15 5 -13 3 -14 -7 -5 -19 17 -2
36 28 28 22 -5 24 -4 13 9 -8 9 -10 16 -5 16 5 -1 21 -17 36 -37z m28 28 c-17
-5 -21 -9 -12 -15 6 -4 18 -4 25 0 9 5 9 4 0 -6 -10 -11 -15 -11 -27 0 -20 16
-11 30 17 29 20 -1 20 -2 -3 -8z m-779 -31 c5 0 9 -5 9 -11 0 -8 -5 -8 -15 1
-18 15 -20 -1 -3 -18 8 -8 8 -12 1 -12 -16 0 -23 24 -15 52 5 18 7 19 10 6 2
-10 8 -18 13 -18z m904 -10 c-4 -6 -11 -8 -16 -5 -5 4 -9 2 -9 -3 0 -16 13
-22 26 -11 7 6 18 8 23 5 12 -8 3 -36 -11 -36 -6 0 -5 6 2 15 8 9 9 15 2 15
-6 0 -14 -5 -17 -10 -5 -8 -11 -8 -20 0 -9 8 -14 6 -19 -5 -3 -9 -10 -13 -16
-10 -5 3 -10 1 -10 -5 0 -8 10 -10 28 -6 22 5 24 4 9 -5 -21 -12 -51 -5 -45
12 2 6 7 9 12 7 4 -2 14 10 22 25 8 15 20 25 26 21 6 -4 8 2 4 17 -6 20 -5 21
4 6 6 -9 8 -22 5 -27z m-1191 16 c-10 -8 -21 -12 -24 -10 -5 6 21 24 34 24 6
0 1 -6 -10 -14z m476 7 c0 -5 -5 -15 -10 -23 -7 -12 -9 -10 -7 8 1 19 17 33
17 15z m255 -11 c-3 -3 -11 0 -18 7 -9 10 -8 11 6 5 10 -3 15 -9 12 -12z m418
-6 c-10 -13 -20 -22 -22 -20 -4 4 29 44 36 44 2 0 -4 -11 -14 -24z m-1111 7
c-6 -2 -10 -9 -7 -14 4 -5 -1 -6 -10 -3 -11 5 -14 2 -9 -12 5 -16 4 -16 -5 -4
-8 11 -7 18 6 28 9 6 22 12 27 11 6 0 5 -3 -2 -6z m208 3 c0 -2 -7 -6 -15 -10
-8 -3 -15 -1 -15 4 0 6 7 10 15 10 8 0 15 -2 15 -4z m182 -9 c-12 -7 -20 -16
-16 -20 4 -3 0 -9 -9 -13 -15 -5 -15 -8 -1 -29 11 -16 12 -25 4 -30 -6 -4 -14
-4 -17 -1 -4 3 -1 6 6 6 10 0 9 6 -3 25 -20 30 -20 35 0 35 8 0 13 4 9 9 -5
10 22 30 40 30 6 0 0 -5 -13 -12z m89 2 c19 -10 19 -11 -6 -40 -14 -17 -22
-35 -19 -41 3 -5 -3 -12 -15 -15 -11 -3 -18 -9 -15 -14 3 -5 -3 -6 -13 -2 -15
6 -14 8 7 17 14 6 26 18 28 26 2 8 13 26 25 39 19 21 19 23 4 18 -10 -4 -16
-3 -12 2 3 5 -1 12 -7 14 -7 3 -9 6 -5 6 5 1 17 -4 28 -10z m117 -14 c-3 -3
-9 2 -12 12 -6 14 -5 15 5 6 7 -7 10 -15 7 -18z m-712 0 c-11 -8 -24 -15 -30
-15 -5 0 -1 7 10 15 10 8 24 14 29 14 6 0 1 -6 -9 -14z m154 -20 c0 -5 -4 -4
-9 3 -6 10 -10 8 -14 -8 -3 -12 -10 -19 -15 -16 -14 8 -63 -33 -56 -47 3 -7
-4 -1 -15 12 -12 13 -21 28 -20 35 0 7 2 6 6 -2 2 -6 9 -10 14 -7 5 4 6 -2 2
-12 -5 -13 1 -11 26 10 18 15 36 25 41 22 4 -3 11 7 15 22 5 21 8 24 16 12 5
-7 9 -18 9 -24z m278 13 c11 -14 10 -18 -7 -27 -17 -9 -22 -8 -31 9 -7 13 -7
20 0 20 5 0 10 -7 10 -15 0 -9 6 -12 16 -8 11 4 12 9 5 16 -6 6 -11 15 -11 21
0 5 1 7 3 5 1 -2 8 -12 15 -21z m262 2 c7 -14 7 -20 0 -20 -5 0 -10 7 -10 15
0 9 -6 12 -16 8 -11 -4 -12 -9 -5 -16 6 -6 11 -15 11 -21 0 -5 -7 -1 -15 10
-12 17 -12 20 2 32 21 15 20 16 33 -8z m95 0 c0 -7 -6 -14 -13 -16 -7 -1 -8 0
-2 3 17 8 11 23 -7 16 -11 -4 -14 -3 -9 6 10 15 31 9 31 -9z m95 -17 c0 9 5
17 10 17 7 0 7 -7 0 -21 -10 -17 -14 -18 -28 -7 -22 17 -32 30 -32 43 0 6 11
-3 25 -20 19 -23 24 -26 25 -12z m87 7 c2 -18 1 -21 -6 -10 -5 8 -7 18 -5 22
3 4 -5 8 -17 8 -12 0 -19 -3 -16 -6 4 -4 -2 -19 -13 -34 -18 -26 -18 -40 2
-40 4 0 7 6 6 13 -3 14 69 20 78 6 3 -5 -1 -6 -9 -3 -8 3 -18 1 -22 -5 -3 -7
2 -11 14 -11 11 0 22 -4 25 -9 4 -6 -5 -6 -21 -2 -16 5 -27 13 -25 20 1 6 -7
11 -19 11 -11 0 -18 -4 -14 -9 9 -15 -15 -24 -30 -11 -13 11 -12 16 6 41 11
16 18 29 14 29 -3 0 -3 5 0 11 13 19 48 5 52 -21z m223 13 c0 -3 -7 -3 -15 1
-8 3 -15 0 -15 -6 0 -6 -3 -9 -6 -5 -11 10 6 26 21 20 8 -3 15 -7 15 -10z
m-630 -8 c0 -8 -4 -15 -10 -15 -5 0 -7 7 -4 15 4 8 8 15 10 15 2 0 4 -7 4 -15z
m59 -12 c-12 -15 -12 -16 3 -10 12 4 21 0 28 -13 14 -26 12 -39 -3 -15 -14 24
-51 31 -43 8 3 -8 1 -11 -4 -8 -6 3 -10 1 -10 -6 0 -7 -3 -9 -6 -6 -4 4 4 22
17 41 13 19 25 33 28 31 2 -3 -2 -12 -10 -22z m204 -31 c-4 -18 -2 -21 13 -16
15 6 16 4 7 -6 -13 -14 -33 -5 -33 16 0 8 -4 14 -10 14 -5 0 -10 5 -10 11 0 8
5 7 16 -2 13 -11 15 -9 9 17 -4 23 -3 25 4 9 5 -11 7 -30 4 -43z m-783 38
c-18 -12 -30 -13 -30 -2 0 4 10 9 22 9 18 2 20 0 8 -7z m166 -5 c-3 -8 0 -15
6 -15 6 0 9 -3 5 -6 -10 -11 -26 6 -20 21 3 8 7 15 10 15 3 0 3 -7 -1 -15z
m84 5 c0 -5 -11 -12 -25 -16 -14 -3 -22 -10 -19 -15 3 -5 -2 -12 -10 -15 -9
-3 -13 -10 -10 -15 3 -5 -3 -6 -12 -2 -13 5 -15 3 -9 -7 6 -9 4 -11 -5 -5 -10
6 -9 11 5 22 11 7 23 13 28 13 4 0 5 5 2 11 -4 6 2 13 14 16 12 3 21 9 21 14
0 5 5 9 10 9 6 0 10 -4 10 -10z m218 -10 c-7 -10 -14 -18 -15 -16 -6 6 9 36
18 36 5 0 4 -9 -3 -20z m236 5 c3 -8 1 -25 -4 -37 -7 -18 -9 -19 -9 -5 -1 9
-5 17 -11 17 -5 0 -10 5 -10 11 0 8 5 8 15 -1 18 -15 20 1 3 18 -8 8 -8 12 -1
12 6 0 13 -7 17 -15z m597 -22 c-11 -16 -11 -16 -6 4 5 19 3 22 -12 17 -15 -5
-15 -4 -3 5 21 14 35 -3 21 -26z m-1271 17 c0 -5 -8 -10 -17 -10 -15 0 -16 2
-3 10 19 12 20 12 20 0z m995 -49 c-14 -14 -39 -6 -30 10 4 5 2 9 -4 9 -5 0
-12 -5 -14 -10 -3 -6 -4 -5 -3 2 2 7 9 13 17 13 8 0 13 -6 12 -12 -2 -7 1 -13
5 -13 18 0 20 14 5 39 l-15 26 20 -25 c18 -21 19 -27 7 -39z m-1100 39 c-3 -5
-11 -10 -16 -10 -6 0 -7 5 -4 10 3 6 11 10 16 10 6 0 7 -4 4 -10z m41 -13 c3
-22 36 -61 54 -65 8 -2 24 -13 35 -25 l20 -21 -22 18 c-12 9 -28 19 -37 20
-18 3 -68 65 -61 77 3 4 0 10 -5 12 -6 3 -5 4 1 3 7 -1 13 -10 15 -19z m310 8
c-11 -8 -22 -12 -25 -9 -6 6 19 24 34 24 6 -1 1 -7 -9 -15z m68 -1 c3 -8 2
-12 -4 -9 -6 3 -10 10 -10 16 0 14 7 11 14 -7z m166 -1 c0 -3 -7 -2 -16 1 -12
5 -15 2 -10 -9 3 -9 2 -13 -4 -10 -6 3 -10 1 -10 -6 0 -7 -3 -10 -6 -7 -11 12
16 47 31 42 8 -4 15 -8 15 -11z m619 -16 c-1 -20 -2 -20 -8 3 -5 17 -9 21 -15
12 -4 -6 -4 -18 0 -24 5 -10 4 -10 -6 -1 -11 10 -11 15 0 27 16 20 30 11 29
-17z m155 -10 c7 -6 4 -7 -6 -3 -19 6 -25 -9 -8 -19 6 -3 10 -12 9 -18 0 -9
-2 -8 -6 1 -2 6 -8 10 -12 7 -7 -4 -8 10 -1 55 1 13 2 13 7 0 3 -8 11 -19 17
-23z m-1340 7 c3 -8 2 -12 -4 -9 -6 3 -10 10 -10 16 0 14 7 11 14 -7z m274
-14 c-12 -16 -25 -30 -30 -30 -4 0 4 14 19 30 14 17 28 30 30 30 2 0 -6 -13
-19 -30z m107 10 c0 -8 -6 -14 -12 -12 -7 1 -13 -4 -13 -11 0 -27 14 -27 31 0
l18 27 7 -28 c3 -15 9 -24 12 -21 3 3 16 -2 30 -11 23 -15 24 -15 17 8 -5 20
-4 20 5 5 17 -27 2 -39 -25 -21 -13 9 -27 15 -32 14 -4 -1 -10 7 -14 17 -5 16
-7 16 -18 -4 -7 -14 -17 -20 -27 -16 -18 7 -15 49 4 46 6 -2 12 2 12 8 0 7
-10 9 -27 5 -21 -5 -24 -4 -13 4 20 14 45 8 45 -10z m90 10 c3 -6 -1 -7 -9 -4
-18 7 -21 14 -7 14 6 0 13 -4 16 -10z m251 -1 c11 -18 -14 -35 -28 -20 -11 11
-10 13 5 8 19 -7 24 9 5 16 -10 4 -10 6 -1 6 6 1 15 -4 19 -10z m79 0 c11 -16
1 -19 -13 -3 -7 8 -8 14 -3 14 5 0 13 -5 16 -11z m80 0 c11 -16 1 -19 -13 -3
-7 8 -8 14 -3 14 5 0 13 -5 16 -11z m-753 -6 c-6 -2 -10 -9 -7 -14 4 -5 -1 -6
-10 -2 -15 5 -15 3 -4 -15 7 -11 17 -18 21 -16 7 5 25 -29 32 -61 12 -48 20
-64 30 -62 6 1 11 -9 11 -23 0 -14 -5 -24 -11 -23 -7 1 -15 -10 -19 -24 l-6
-27 -18 28 c-10 15 -22 27 -27 27 -14 -1 -10 22 4 25 7 1 8 0 2 -3 -5 -2 -10
-9 -10 -14 0 -6 4 -8 9 -4 6 3 15 -5 22 -17 l12 -22 8 23 c5 12 13 19 19 16 5
-3 10 3 10 15 0 12 -5 18 -10 15 -9 -5 -26 25 -34 60 -12 48 -19 64 -27 59 -5
-3 -12 2 -15 10 -3 9 -10 14 -14 11 -5 -3 -7 2 -6 11 3 16 24 34 41 33 6 0 4
-3 -3 -6z m321 -5 c13 -10 14 -17 6 -28 -9 -12 -10 -12 -5 4 5 14 2 17 -9 12
-9 -3 -14 -2 -10 3 3 5 -1 12 -7 14 -7 3 -8 6 -2 6 5 1 18 -5 27 -11z m192 -7
c-3 -6 -11 -11 -16 -11 -5 0 -4 6 3 14 14 16 24 13 13 -3z m499 -16 c-4 -8 -8
-15 -11 -15 -3 0 -3 7 1 15 3 9 0 15 -9 15 -8 0 -15 5 -15 10 0 7 6 7 20 0 11
-6 17 -16 14 -25z m140 20 c-10 -8 -23 -14 -29 -14 -5 0 -1 6 9 14 11 8 24 15
30 15 5 0 1 -7 -10 -15z m-950 -30 c-4 -8 -8 -15 -11 -15 -3 0 -3 6 0 14 10
26 -18 24 -35 -3 -10 -14 -18 -22 -18 -18 0 4 7 19 16 32 13 20 20 23 35 15
10 -6 16 -17 13 -25z m446 20 c-12 -14 -9 -15 21 -10 18 3 31 3 28 0 -9 -8
-51 -15 -60 -9 -11 6 0 34 13 34 6 0 5 -7 -2 -15z m421 -12 c-12 -20 -14 -14
-5 12 4 9 9 14 11 11 3 -2 0 -13 -6 -23z m-1042 1 c4 3 8 -5 8 -16 2 -20 1
-20 -12 -2 -8 11 -14 24 -14 29 0 6 3 4 6 -3 2 -6 8 -10 12 -8z m-133 -5 c3
-6 2 -15 -4 -21 -6 -6 -12 -6 -17 3 -5 8 -4 10 3 5 7 -4 12 -3 12 3 0 5 -6 12
-12 14 -10 4 -10 6 -1 6 6 1 15 -4 19 -10z m489 1 c-3 -5 -12 -10 -18 -10 -7
0 -6 4 3 10 19 12 23 12 15 0z m145 0 c-8 -5 -19 -10 -25 -10 -5 0 -3 5 5 10
8 5 20 10 25 10 6 0 3 -5 -5 -10z m45 -8 c-3 -3 -11 0 -18 7 -9 10 -8 11 6 5
10 -3 15 -9 12 -12z m45 14 c0 -2 -7 -7 -16 -10 -8 -3 -12 -2 -9 4 6 10 25 14
25 6z m165 -7 c4 -5 -2 -6 -12 -2 -16 6 -16 5 -4 -10 7 -9 9 -17 3 -17 -5 0
-12 7 -16 15 -3 9 -12 12 -23 9 -12 -4 -14 -3 -6 3 17 12 51 14 58 2z m45 1
c-8 -5 -19 -10 -25 -10 -5 0 -3 5 5 10 8 5 20 10 25 10 6 0 3 -5 -5 -10z m150
6 c0 -2 -7 -7 -16 -10 -8 -3 -12 -2 -9 4 6 10 25 14 25 6z m63 -3 c-7 -2 -13
-9 -13 -14 0 -6 4 -8 9 -4 15 9 24 -15 11 -30 -11 -13 -16 -12 -37 5 -23 18
-55 29 -40 14 4 -4 -2 -19 -13 -34 -18 -26 -18 -40 2 -40 4 0 7 6 6 13 -2 6 5
12 14 12 9 0 20 4 24 8 4 4 -1 7 -11 7 -10 0 -16 3 -12 6 12 12 37 -5 31 -21
-4 -10 -13 -13 -26 -9 -13 4 -18 2 -14 -4 7 -12 -32 -37 -42 -28 -3 3 1 6 8 6
11 0 11 3 2 12 -8 8 -6 18 9 40 11 15 17 28 13 28 -5 0 -3 5 4 12 9 9 18 7 41
-10 27 -20 41 -20 41 0 0 5 -4 7 -9 3 -12 -7 -24 12 -16 25 3 6 12 10 18 9 9
0 9 -2 0 -6z m73 -4 c8 -14 -18 -31 -30 -19 -9 9 0 30 14 30 5 0 12 -5 16 -11z
m42 -3 c-7 -8 -15 -12 -17 -11 -5 6 10 25 20 25 5 0 4 -6 -3 -14z m-665 -25
c-2 -6 6 -11 18 -11 11 0 18 4 14 9 -9 15 15 24 30 11 13 -11 12 -16 -4 -39
-10 -14 -19 -30 -20 -36 -1 -5 -11 -10 -23 -10 -15 0 -22 7 -25 25 -2 18 -1
21 6 10 5 -8 7 -18 5 -22 -3 -4 5 -8 17 -8 12 0 19 3 16 6 -4 4 2 19 13 34 18
26 18 40 -2 40 -4 0 -7 -6 -5 -12 2 -15 -70 -21 -79 -7 -3 5 1 6 9 3 8 -3 18
-1 22 5 3 7 -2 11 -14 11 -11 0 -22 4 -25 9 -4 6 5 6 21 2 16 -5 27 -13 26
-20z m442 19 c-3 -5 -15 -10 -26 -10 -11 0 -18 -4 -15 -8 2 -4 0 -14 -5 -22
-7 -11 -8 -9 -6 10 3 16 12 27 28 31 13 4 25 7 27 8 2 1 0 -3 -3 -9z m-821
-15 c11 -8 15 -15 10 -15 -6 0 -19 7 -30 15 -10 8 -14 14 -9 14 6 0 19 -6 29
-14z m52 -17 c-18 -26 -22 -17 -5 14 6 11 13 17 16 15 3 -3 -2 -16 -11 -29z
m247 13 c-4 -14 14 -15 20 -1 3 6 4 5 3 -2 -2 -7 -9 -13 -17 -13 -8 0 -13 6
-11 13 1 6 -2 12 -6 12 -18 0 -20 -14 -5 -39 l15 -26 -20 25 c-15 18 -18 28
-10 38 13 15 34 10 31 -7z m220 -15 c-2 -23 0 -26 13 -16 10 9 14 9 14 1 0 -6
-4 -11 -10 -11 -5 0 -10 -8 -11 -17 0 -15 -2 -15 -9 2 -4 11 -6 30 -3 43 4 18
2 21 -13 15 -12 -4 -15 -3 -10 6 13 20 31 6 29 -23z m80 0 c-2 -23 0 -26 13
-16 10 9 14 9 14 1 0 -6 -5 -11 -11 -11 -5 0 -7 -4 -4 -10 3 -5 2 -10 -3 -10
-14 0 -22 25 -15 49 4 17 2 20 -12 14 -13 -4 -16 -3 -11 6 13 20 31 6 29 -23z
m145 21 c7 -8 7 -18 2 -27 -9 -13 -10 -13 -11 0 -1 8 -1 18 0 23 0 4 -3 7 -9
7 -5 0 -10 -5 -10 -12 0 -6 -3 -9 -6 -5 -7 7 4 27 15 27 5 0 13 -6 19 -13z
m322 -15 c0 -15 -2 -15 -10 -2 -13 20 -13 33 0 25 6 -3 10 -14 10 -23z m-575
-11 c-6 -5 -25 10 -25 20 0 5 6 4 14 -3 8 -7 12 -15 11 -17z m80 0 c-6 -5 -25
10 -25 20 0 5 6 4 14 -3 8 -7 12 -15 11 -17z m80 0 c-6 -5 -25 10 -25 20 0 5
6 4 14 -3 8 -7 12 -15 11 -17z m54 -16 c0 -5 -6 -1 -14 9 -8 11 -15 24 -15 30
0 5 7 1 15 -10 8 -10 14 -23 14 -29z m122 16 c-10 -17 -41 -20 -41 -4 0 3 7 2
16 -1 12 -5 15 -2 10 9 -3 9 -2 13 4 10 6 -3 10 -1 10 6 0 7 3 10 6 7 3 -4 1
-16 -5 -27z m-1017 11 c2 -4 -4 -8 -14 -8 -10 0 -16 4 -14 8 3 4 9 8 14 8 5 0
11 -4 14 -8z m166 -2 c11 -8 8 -9 -12 -4 -18 4 -28 2 -28 -5 0 -6 6 -10 13 -8
6 1 12 -4 12 -12 0 -8 -6 -15 -13 -17 -7 -1 -8 0 -2 3 5 2 10 9 10 14 0 6 -4
8 -9 4 -12 -7 -24 12 -16 25 8 13 26 13 45 0z m114 -4 c-10 -8 -21 -12 -24
-10 -5 6 21 24 34 24 6 0 1 -6 -10 -14z m76 7 c0 -5 -5 -15 -10 -23 -7 -12 -9
-10 -7 8 1 19 17 33 17 15z m870 -3 c8 -5 12 -11 10 -14 -3 -2 -14 2 -24 10
-22 15 -10 19 14 4z m-1180 -40 c-6 -11 -18 -20 -26 -20 -9 0 -12 -5 -8 -12 4
-7 3 -8 -5 -4 -14 9 -5 26 14 26 7 0 15 7 19 15 3 9 0 15 -9 15 -8 0 -15 5
-15 10 0 7 7 7 20 0 16 -9 18 -15 10 -30z m271 31 c-9 -6 -10 -11 -2 -15 8 -5
4 -17 -11 -39 -13 -18 -22 -34 -21 -37 1 -3 -7 -5 -17 -4 -13 0 -20 -6 -20
-19 0 -15 3 -17 14 -8 10 9 16 8 26 -4 9 -10 9 -15 1 -15 -6 0 -11 5 -11 11 0
5 -5 7 -12 3 -7 -5 -5 -11 7 -21 11 -7 15 -13 10 -13 -16 0 -45 33 -45 50 0
10 8 24 17 31 11 10 14 10 9 2 -5 -9 -1 -13 10 -13 10 0 14 3 11 6 -4 4 2 19
13 34 18 26 18 40 -2 40 -5 0 -6 -5 -3 -10 9 -15 -21 -23 -42 -11 -15 9 -13
10 11 5 20 -5 27 -3 22 4 -3 6 2 15 11 21 22 12 44 14 24 2z m80 -2 c16 -8 18
-13 8 -25 -6 -8 -16 -14 -22 -14 -6 0 -2 7 9 16 17 14 17 15 1 10 -10 -3 -16
-2 -12 3 3 5 -1 12 -7 14 -7 3 -9 6 -5 6 5 1 17 -4 28 -10z m805 -4 c10 -8 15
-15 10 -15 -6 0 -2 -6 9 -13 14 -11 15 -16 5 -22 -8 -5 -11 -4 -7 2 4 6 0 14
-9 17 -8 3 -12 10 -9 16 10 16 -11 12 -25 -5 -7 -8 -17 -15 -23 -15 -6 0 -1 7
12 16 18 13 20 18 10 25 -8 5 -9 9 -3 9 5 0 19 -7 30 -15z m-982 -11 c5 -14 4
-15 -9 -4 -17 14 -19 20 -6 20 5 0 12 -7 15 -16z m246 -28 c-1 -6 -6 -1 -13
12 -7 12 -17 19 -22 15 -4 -4 -5 -2 0 6 7 12 10 11 22 -4 7 -11 13 -24 13 -29z
m73 13 c2 -8 6 -20 10 -26 5 -7 5 -19 0 -25 -13 -22 -12 -36 4 -42 10 -4 13 0
11 17 -2 16 2 22 17 23 14 1 15 0 3 -3 -10 -2 -15 -10 -12 -18 9 -23 -5 -36
-27 -25 -10 6 -18 14 -17 18 1 4 -2 15 -7 26 -5 10 -4 26 2 35 14 22 5 41 -15
34 -14 -4 -15 -3 -2 6 16 11 30 2 33 -20z m141 -1 c-3 -4 0 -8 5 -8 6 0 11 -5
11 -11 0 -8 -5 -8 -15 1 -12 10 -16 9 -20 -4 -3 -9 -7 -23 -10 -32 -3 -8 -9
-13 -14 -10 -5 4 -11 0 -14 -6 -2 -7 -4 -1 -4 15 0 15 3 30 8 33 5 3 6 -1 3
-9 -3 -8 -1 -18 5 -22 6 -3 11 2 11 12 0 11 5 24 12 31 9 9 9 15 0 24 -9 9
-12 8 -12 -5 0 -9 -5 -17 -10 -17 -7 0 -7 6 0 20 9 17 14 18 30 8 10 -7 16
-16 14 -20z m196 -4 c0 -22 -29 -24 -40 -4 -7 14 -7 20 0 20 5 0 10 -7 10 -16
0 -8 5 -12 10 -9 6 4 8 16 5 28 -5 17 -4 19 4 7 6 -8 11 -20 11 -26z m280 26
c0 -5 -4 -10 -10 -10 -5 0 -10 5 -10 10 0 6 5 10 10 10 6 0 10 -4 10 -10z
m-1157 -7 c-7 -2 -19 -2 -25 0 -7 3 -2 5 12 5 14 0 19 -2 13 -5z m197 -16 c0
-8 -3 -8 -9 1 -7 11 -9 11 -14 -2 -4 -10 -1 -16 8 -16 8 0 15 -5 15 -10 0 -7
-7 -7 -20 0 -16 9 -18 15 -10 31 11 20 30 18 30 -4z m170 8 c0 -8 -4 -15 -10
-15 -5 0 -7 7 -4 15 4 8 8 15 10 15 2 0 4 -7 4 -15z m-287 -2 c-16 -6 -17 -24
-2 -20 6 1 14 -4 16 -10 7 -18 -22 -27 -44 -14 -15 9 -13 10 10 5 17 -4 27 -2
27 6 0 6 -4 9 -9 5 -12 -7 -24 12 -16 25 3 6 12 10 18 9 9 0 9 -2 0 -6z m690
-8 c8 -18 -11 -31 -25 -17 -11 11 -3 32 12 32 4 0 10 -7 13 -15z m170 -2 c-17
-14 -17 -14 0 -9 11 3 16 2 12 -4 -3 -6 -1 -10 6 -10 7 0 10 -3 7 -6 -10 -9
-49 16 -43 27 4 5 1 9 -4 9 -6 0 -11 -5 -11 -12 0 -6 -3 -9 -6 -5 -11 11 6 25
31 25 24 0 24 -1 8 -15z m40 0 c-4 -11 -3 -14 5 -9 7 4 12 2 12 -4 0 -7 -6
-10 -12 -8 -16 6 -23 38 -9 38 6 0 7 -7 4 -17z m142 7 c-3 -5 -1 -10 4 -10 6
0 11 -5 11 -11 0 -8 -5 -7 -16 2 -13 11 -14 9 -9 -13 8 -30 -11 -47 -28 -28
-9 10 -8 12 7 6 15 -5 17 -2 13 15 -7 24 1 49 15 49 5 0 6 -4 3 -10z m-688
-12 c-2 -7 -10 -12 -16 -10 -14 3 -11 -30 4 -40 6 -5 6 -8 -1 -8 -24 0 -34 26
-18 48 16 24 39 30 31 10z m-183 -7 c3 -5 -1 -14 -10 -21 -12 -11 -17 -11 -27
0 -9 10 -9 11 1 6 6 -4 18 -4 24 0 9 6 5 10 -12 15 -23 6 -23 7 -3 8 12 1 24
-3 27 -8z m106 -8 c0 -3 -7 -2 -16 1 -12 5 -15 2 -10 -9 3 -9 2 -13 -4 -10 -6
3 -10 1 -10 -6 0 -7 -3 -10 -6 -7 -11 12 16 47 31 42 8 -4 15 -8 15 -11z m135
-13 c-4 -7 -17 -9 -33 -5 -22 5 -24 4 -13 -9 8 -9 9 -16 3 -16 -12 0 -23 26
-15 34 3 3 17 3 30 0 19 -5 22 -3 17 12 -6 15 -4 16 6 7 7 -6 9 -17 5 -23z
m339 14 c3 -8 2 -12 -4 -9 -6 3 -10 10 -10 16 0 14 7 11 14 -7z m367 9 c0 -5
2 -18 3 -30 1 -12 -1 -20 -6 -17 -5 4 -7 12 -4 20 3 8 1 14 -4 14 -6 0 -10 5
-10 10 0 11 20 14 21 3z m-1004 -37 c25 -4 25 -48 0 -52 -10 -1 -26 -8 -36
-16 -9 -7 -6 -3 7 10 13 12 28 20 33 17 5 -4 9 3 9 15 0 12 -4 19 -9 15 -5 -3
-20 5 -33 17 -13 13 -16 17 -7 10 10 -8 26 -15 36 -16z m179 12 c-2 -15 -11
-24 -25 -26 -12 -2 -19 -8 -16 -13 4 -5 1 -9 -5 -9 -20 0 -5 24 19 30 12 3 22
8 22 13 -2 19 -1 27 4 27 3 0 3 -10 1 -22z m439 -17 c-3 -6 -10 -9 -14 -6 -5
2 -13 -7 -19 -20 -10 -22 -14 -24 -31 -13 -11 7 -18 14 -16 17 3 2 12 -2 22
-10 15 -12 16 -12 10 4 -4 10 -3 16 2 13 5 -3 12 1 15 10 3 8 10 12 16 9 5 -3
10 -2 10 3 0 18 -13 21 -34 7 -18 -12 -24 -12 -40 1 -11 8 -15 14 -10 14 6 0
15 -5 20 -10 7 -7 17 -5 30 4 16 12 21 13 33 1 7 -7 10 -18 6 -24z m127 12 c7
-4 17 -8 22 -8 5 0 11 -7 13 -15 4 -13 3 -13 -6 0 -6 8 -11 11 -11 6 0 -5 -6
-3 -14 3 -8 7 -24 14 -36 16 -13 2 -25 7 -29 10 -8 9 46 -2 61 -12z m133 7
c-27 -12 -43 -12 -25 0 8 5 22 9 30 9 10 0 8 -3 -5 -9z m83 -4 c-7 -8 -15 -12
-17 -11 -5 6 10 25 20 25 5 0 4 -6 -3 -14z m-432 -11 c10 -8 15 -14 9 -14 -5
0 -19 6 -29 14 -11 8 -15 15 -10 15 6 0 19 -7 30 -15z m155 4 c16 -8 18 -14 9
-24 -8 -9 -8 -15 0 -20 15 -9 12 -41 -5 -55 -18 -15 -20 -31 -3 -27 6 1 14 -7
16 -18 2 -11 11 -28 20 -37 8 -10 12 -18 7 -18 -12 0 -34 33 -35 53 0 10 -5
15 -11 12 -6 -4 -8 -14 -5 -22 3 -8 2 -12 -3 -9 -11 7 -11 55 1 62 5 3 4 12
-3 20 -9 11 -9 17 1 29 7 8 9 15 5 15 -4 0 -2 7 5 15 8 9 9 15 2 15 -11 0 -27
-19 -27 -33 0 -5 -10 -14 -22 -20 -12 -7 -22 -16 -22 -22 0 -5 -9 -11 -21 -13
-11 -2 -18 -8 -15 -13 4 -5 1 -9 -5 -9 -21 0 -4 24 21 30 16 4 20 8 11 14 -6
4 -17 4 -24 0 -7 -4 -8 -3 -4 5 4 6 13 11 19 10 25 -3 38 1 32 11 -4 6 1 7 11
3 11 -4 15 -2 11 4 -4 6 0 16 9 23 12 11 12 15 2 21 -19 13 0 11 23 -2z m-826
-8 c3 -6 -4 -9 -15 -8 -11 1 -20 5 -20 9 0 11 28 10 35 -1z m65 -23 c0 -19
-16 -5 -17 14 -2 18 0 20 7 8 5 -8 10 -18 10 -22z m396 -14 c-3 -9 -10 -13
-15 -9 -5 3 -13 -4 -16 -16 -4 -11 -9 -18 -12 -16 -9 10 18 48 29 41 7 -5 9 2
4 22 -5 24 -4 26 5 11 6 -10 8 -25 5 -33z m158 20 c-5 -19 -3 -25 4 -20 12 7
38 -32 28 -42 -3 -3 -6 1 -6 8 0 11 -3 11 -12 2 -8 -8 -17 -7 -37 7 -14 10
-30 18 -36 18 -5 0 -11 8 -12 19 -3 18 -2 18 6 -1 5 -11 10 -16 10 -12 1 5 14
-1 30 -12 27 -19 41 -19 41 1 0 5 -4 7 -9 3 -14 -8 -23 12 -16 35 9 30 16 24
9 -6z m157 3 c-10 -9 -11 -8 -5 6 3 10 9 15 12 12 3 -3 0 -11 -7 -18z m209 -1
c0 -6 -5 -18 -11 -26 -8 -12 -9 -10 -4 7 3 12 1 24 -5 28 -5 3 -10 -1 -10 -9
0 -9 -5 -16 -10 -16 -7 0 -7 6 0 20 11 20 40 18 40 -4z m128 4 c-7 -10 -14
-18 -15 -16 -6 6 9 36 18 36 5 0 4 -9 -3 -20z m-250 -16 c0 -17 -3 -22 -8 -13
-5 6 -6 18 -3 26 8 19 11 16 11 -13z m162 5 c0 -6 -4 -7 -10 -4 -5 3 -10 11
-10 16 0 6 5 7 10 4 6 -3 10 -11 10 -16z m-670 1 c12 -7 10 -9 -8 -7 -12 0
-22 5 -22 9 0 11 12 10 30 -2z m68 -10 c-7 -10 -14 -18 -15 -16 -6 6 9 36 18
36 5 0 4 -9 -3 -20z m236 4 c9 -24 2 -26 -12 -4 -7 11 -8 20 -3 20 5 0 12 -7
15 -16z m231 6 c3 -5 1 -10 -4 -10 -6 0 -11 5 -11 10 0 6 2 10 4 10 3 0 8 -4
11 -10z m195 0 c0 -5 -4 -10 -10 -10 -5 0 -10 5 -10 10 0 6 5 10 10 10 6 0 10
-4 10 -10z m-36 -15 c-4 -8 -11 -15 -16 -15 -6 0 -5 6 2 15 7 8 14 15 16 15 2
0 1 -7 -2 -15z m-730 -3 c2 -4 1 -14 -4 -22 -7 -11 -12 -12 -21 -3 -6 6 -8 16
-5 22 8 13 23 14 30 3z m606 -2 c0 -5 8 -10 18 -11 14 0 14 -2 -3 -9 -11 -4
-30 -6 -43 -3 -18 4 -21 2 -16 -13 6 -15 4 -16 -6 -7 -19 17 -2 36 28 28 22
-5 24 -4 13 9 -9 11 -10 16 -2 16 6 0 11 -4 11 -10z m66 -22 c-18 -26 -22 -17
-5 14 6 11 13 17 16 15 3 -3 -2 -16 -11 -29z m-707 -23 c0 -5 -6 -1 -14 9 -8
11 -15 24 -15 30 0 5 7 1 15 -10 8 -10 14 -23 14 -29z m75 34 c8 6 17 6 26 0
12 -8 11 -9 -4 -7 -10 2 -21 -2 -23 -9 -3 -8 4 -10 22 -7 17 3 24 1 20 -6 -14
-23 -66 5 -64 35 0 6 3 4 6 -3 3 -9 9 -10 17 -3z m696 -26 c-11 -17 -11 -17
-6 0 3 10 6 24 7 30 0 9 2 9 5 0 3 -7 0 -20 -6 -30z m-860 12 c10 -12 9 -16
-4 -21 -8 -3 -21 -4 -28 -1 -7 3 -3 6 10 6 14 1 20 5 17 12 -4 6 -14 8 -22 5
-8 -3 -11 -1 -8 4 9 14 21 12 35 -5z m274 1 c-10 -8 -21 -12 -24 -10 -5 6 21
24 34 24 6 0 1 -6 -10 -14z m76 10 c0 -16 -32 -76 -39 -71 -12 7 -54 -28 -57
-48 -1 -8 5 -18 13 -21 12 -5 14 -1 10 14 -3 14 1 24 15 31 11 6 22 8 26 5 3
-3 0 -6 -7 -6 -7 0 -9 -4 -6 -10 3 -6 -1 -7 -10 -4 -11 5 -14 2 -9 -9 9 -25
-4 -39 -27 -27 -10 6 -18 14 -17 18 1 4 -3 17 -10 28 -9 17 -9 24 1 31 24 19
37 24 37 14 0 -6 -6 -11 -13 -11 -7 0 -13 -9 -14 -20 -2 -20 0 -19 28 5 17 14
34 23 39 20 7 -5 25 42 22 58 -1 4 3 7 8 7 6 0 10 -2 10 -4z m156 -7 c8 -14
-11 -33 -25 -25 -11 7 -4 36 9 36 5 0 12 -5 16 -11z m-556 -9 c0 -5 -7 -10
-15 -10 -9 0 -12 -6 -8 -16 5 -13 7 -13 14 -2 6 9 9 9 9 1 0 -21 -19 -24 -30
-4 -8 16 -6 22 7 30 23 13 23 13 23 1z m362 3 c-6 -2 -10 -9 -7 -14 4 -5 -1
-6 -10 -3 -11 5 -14 2 -9 -12 5 -16 4 -16 -5 -4 -8 11 -7 18 6 28 9 6 22 12
27 11 6 0 5 -3 -2 -6z m78 -3 c11 -6 17 -16 14 -23 -2 -7 4 -13 16 -14 11 -1
18 2 15 8 -4 5 -1 9 5 9 17 0 6 -25 -11 -25 -8 -1 -24 -6 -35 -13 -18 -9 -24
-9 -34 3 -6 8 -10 22 -7 32 4 15 5 15 6 -2 1 -27 37 -31 37 -4 0 12 -5 18 -14
14 -7 -2 -11 -1 -7 4 3 5 -1 12 -7 14 -7 3 -9 6 -5 6 5 1 17 -4 27 -9z m450 6
c0 -2 -7 -6 -15 -10 -8 -3 -15 -1 -15 4 0 6 7 10 15 10 8 0 15 -2 15 -4z
m-766 -46 c-6 -5 -24 21 -24 34 0 6 6 1 14 -10 8 -10 12 -21 10 -24z m76 15
c14 -19 14 -19 -2 -6 -10 7 -18 18 -18 24 0 6 1 8 3 6 1 -2 9 -13 17 -24z
m454 17 c2 -4 0 -14 -6 -22 -8 -12 -9 -12 -5 2 3 9 1 19 -6 22 -9 3 -9 5 0 5
6 1 14 -3 17 -7z m141 -17 c-32 -27 -28 -33 8 -13 24 13 65 22 55 12 -3 -3
-12 -7 -20 -8 -7 -1 -23 -8 -36 -14 -29 -17 -45 -7 -30 18 7 10 16 16 20 14 4
-3 8 0 8 5 0 6 6 11 13 11 6 -1 -1 -12 -18 -25z m-40 -4 c-3 -6 -11 -11 -16
-11 -5 0 -4 6 3 14 14 16 24 13 13 -3z m-800 -2 c11 -16 1 -19 -13 -3 -7 8 -8
14 -3 14 5 0 13 -5 16 -11z m120 1 c-27 -12 -43 -12 -25 0 8 5 22 9 30 9 10 0
8 -3 -5 -9z m95 -6 c0 -8 4 -13 8 -10 5 3 21 -7 38 -20 l29 -26 -31 21 c-17
11 -34 18 -37 15 -3 -3 -10 4 -17 15 -7 14 -7 21 0 21 5 0 10 -7 10 -16z m120
6 c-18 -12 -30 -13 -30 -2 0 4 10 9 22 9 18 2 20 0 8 -7z m427 -12 c2 -18 0
-20 -7 -8 -12 18 -13 30 -2 30 4 0 9 -10 9 -22z m-460 -30 c2 -17 0 -19 -7 -8
-5 8 -6 18 -4 22 3 4 -2 8 -10 8 -9 0 -16 5 -16 10 0 22 36 -9 37 -32z m-219
19 c8 -9 5 -19 -10 -37 l-20 -25 15 26 c15 25 13 39 -5 39 -4 0 -7 -5 -5 -11
1 -6 -5 -14 -13 -16 -13 -4 -13 -3 0 6 8 6 11 11 7 11 -11 0 2 20 12 20 5 0
13 -6 19 -13z m51 -3 c-11 -13 -9 -14 13 -9 30 8 47 -11 28 -28 -10 -9 -12 -8
-6 7 5 15 2 17 -15 13 -24 -7 -49 1 -49 15 0 5 5 6 10 3 6 -3 10 -1 10 4 0 6
5 11 11 11 8 0 7 -5 -2 -16z m65 0 c3 -8 2 -12 -4 -9 -6 3 -10 10 -10 16 0 14
7 11 14 -7z m402 -2 c1 -7 0 -8 -3 -2 -2 5 -10 10 -15 10 -6 0 -8 -3 -5 -6 4
-4 -2 -19 -13 -34 -18 -26 -18 -40 2 -40 5 0 6 5 3 10 -3 6 1 13 9 16 9 3 14
10 11 14 -3 5 2 7 11 6 16 -3 34 -24 33 -41 0 -5 -5 0 -12 13 -13 22 -28 21
-23 -1 2 -7 1 -9 -1 -4 -3 4 -9 7 -14 7 -6 0 -8 -4 -4 -9 6 -11 -33 -36 -43
-27 -3 3 1 6 8 6 11 0 11 3 2 12 -8 8 -6 18 9 40 11 15 18 28 14 28 -3 0 -3 5
0 11 8 13 28 7 31 -9z m55 3 c0 -6 11 -16 25 -23 13 -7 22 -18 18 -24 -4 -6 2
-8 17 -4 20 6 21 5 6 -4 -20 -13 -41 -4 -31 12 5 8 1 9 -10 5 -9 -4 -15 -3
-12 2 3 5 -1 12 -10 15 -8 3 -12 10 -9 16 3 5 2 10 -3 10 -18 0 -20 -13 -5
-39 l15 -26 -20 25 c-15 18 -18 28 -10 38 12 14 30 12 29 -3z m273 3 c-3 -4
-12 -4 -21 -1 -10 4 -14 2 -9 -5 3 -6 2 -13 -3 -16 -7 -5 -8 15 -2 31 1 1 10
1 20 0 11 0 18 -5 15 -9z m-384 -27 c-6 -12 -16 -19 -22 -15 -8 5 -9 -2 -4
-22 4 -16 4 -26 0 -21 -4 4 -9 24 -11 44 -2 34 -1 35 13 17 14 -17 15 -17 10
-1 -3 11 -2 16 4 12 6 -3 10 -1 10 6 0 7 3 10 6 7 3 -4 1 -16 -6 -27z m300
-14 c0 -5 -13 1 -29 12 -26 19 -41 19 -41 -1 0 -4 5 -7 11 -5 6 1 14 -5 16
-13 4 -13 3 -13 -6 0 -6 8 -11 11 -11 6 0 -6 -5 -5 -12 2 -8 8 -8 15 1 26 11
13 16 12 42 -2 16 -9 29 -21 29 -25z m22 18 c-8 -16 -9 -16 -15 -1 -4 10 -3
15 3 11 6 -3 10 -1 10 6 0 7 3 10 6 6 3 -3 2 -13 -4 -22z m-422 5 c0 -5 -4
-10 -10 -10 -5 0 -10 5 -10 10 0 6 5 10 10 10 6 0 10 -4 10 -10z m-195 -13
c14 -11 15 -16 5 -22 -9 -6 -11 -4 -5 5 6 10 4 12 -9 7 -9 -4 -15 -3 -11 2 3
5 -1 12 -7 14 -7 3 -8 6 -2 6 5 1 18 -5 29 -12z m-125 -19 c0 -6 -8 -4 -17 3
-15 12 -16 12 -9 -6 5 -15 4 -17 -5 -8 -6 6 -8 16 -5 22 8 12 36 3 36 -11z
m83 -13 c-9 -16 -10 -16 -16 -1 -5 12 -3 15 5 10 8 -5 9 -1 4 12 -5 14 -4 16
4 7 8 -7 9 -17 3 -28z m277 25 c-8 -5 -18 -6 -24 -3 -5 4 -7 -3 -3 -16 4 -17
0 -25 -18 -33 -14 -6 -22 -15 -19 -20 3 -5 -3 -12 -15 -15 -25 -6 -28 -23 -4
-23 9 0 14 -3 10 -6 -8 -8 -47 5 -47 16 0 6 11 12 25 16 14 3 22 10 19 15 -3
5 2 12 10 15 9 3 13 10 10 15 -3 5 3 6 12 2 12 -4 15 -3 10 6 -12 19 -1 36 25
38 18 2 20 0 9 -7z m-303 -46 c-2 -2 -10 2 -17 11 -11 14 -14 13 -25 -1 -9
-14 -14 -14 -20 -4 -5 8 -4 11 3 6 6 -3 13 3 17 13 6 20 6 20 26 0 12 -12 19
-23 16 -25z m243 37 c0 -6 -11 -23 -25 -38 l-26 -28 23 37 c25 40 28 43 28 29z
m-150 -21 c-14 -10 -27 -17 -29 -14 -6 5 31 33 44 33 6 1 -1 -8 -15 -19z m48
3 c-2 -10 -10 -17 -16 -15 -7 1 -12 -3 -12 -9 0 -7 10 -9 28 -5 22 5 24 4 9
-5 -10 -6 -25 -8 -33 -5 -18 7 -12 32 6 28 8 -2 10 3 7 13 -4 8 -2 15 4 15 6
0 9 -8 7 -17z m172 7 c0 -5 -5 -10 -11 -10 -5 0 -7 5 -4 10 3 6 8 10 11 10 2
0 4 -4 4 -10z m186 -29 c-8 -12 -36 -3 -36 11 0 6 8 4 17 -3 15 -12 16 -12 9
6 -5 15 -4 17 5 8 6 -6 8 -16 5 -22z m78 4 c11 -8 15 -15 10 -15 -6 0 -19 7
-30 15 -10 8 -14 14 -9 14 6 0 19 -6 29 -14z m46 11 c0 -3 -4 -8 -10 -11 -5
-3 -10 -1 -10 4 0 6 5 11 10 11 6 0 10 -2 10 -4z m-325 -16 c-3 -5 -3 -16 1
-22 6 -9 10 -5 15 12 6 23 7 23 8 3 1 -28 -13 -37 -29 -18 -10 13 -7 35 6 35
3 0 2 -4 -1 -10z m-240 -10 c13 -6 15 -9 5 -9 -8 0 -22 4 -30 9 -18 12 -2 12
25 0z m413 -5 c3 -3 -2 -5 -11 -5 -9 0 -17 -4 -17 -10 0 -5 -5 -10 -11 -10 -8
0 -7 5 1 15 12 14 9 15 -21 10 -23 -3 -29 -2 -20 4 14 9 69 7 79 -4z m60 8
c-10 -2 -18 -9 -18 -15 0 -6 -3 -9 -6 -5 -10 10 6 27 24 26 15 -1 15 -2 0 -6z
m-488 -29 c0 -2 -9 0 -20 6 -11 6 -20 13 -20 16 0 2 9 0 20 -6 11 -6 20 -13
20 -16z m130 6 c-24 -15 -37 -11 -16 5 11 8 22 12 25 9 3 -3 -1 -9 -9 -14z
m-70 0 c0 -5 -4 -10 -10 -10 -5 0 -10 5 -10 10 0 6 5 10 10 10 6 0 10 -4 10
-10z m186 -12 c10 -12 13 -18 7 -14 -8 4 -13 2 -13 -6 0 -10 -3 -9 -9 2 -6 8
-8 17 -5 21 2 4 -2 10 -8 12 -8 3 -8 6 -2 6 6 1 19 -9 30 -21z m94 -4 c0 -8
-5 -14 -11 -14 -5 0 -8 4 -4 9 3 5 1 12 -5 16 -5 3 -10 -1 -10 -9 0 -19 -16
-21 -26 -4 -4 6 -3 8 3 5 6 -4 13 0 17 8 6 18 36 9 36 -11z m114 10 c3 -8 2
-12 -4 -9 -6 3 -10 10 -10 16 0 14 7 11 14 -7z m53 10 c-3 -3 -12 -4 -19 -1
-8 3 -5 6 6 6 11 1 17 -2 13 -5z m-122 -33 c-6 -5 -25 10 -25 20 0 5 6 4 14
-3 8 -7 12 -15 11 -17z m-287 1 c2 -7 -1 -12 -8 -12 -6 0 -9 4 -6 9 4 5 1 12
-4 14 -6 3 -5 4 2 3 6 -1 14 -8 16 -14z m116 2 c3 -8 2 -12 -4 -9 -6 3 -10 10
-10 16 0 14 7 11 14 -7z"/>
<path d="M1484 809 c-3 -6 -1 -16 5 -22 8 -8 11 -5 11 11 0 24 -5 28 -16 11z"/>
<path d="M780 829 c0 -5 5 -7 10 -4 6 3 10 8 10 11 0 2 -4 4 -10 4 -5 0 -10
-5 -10 -11z"/>
<path d="M660 720 c0 -19 3 -21 12 -12 9 9 9 15 0 24 -9 9 -12 7 -12 -12z"/>
<path d="M1700 669 c0 -5 5 -7 10 -4 6 3 10 8 10 11 0 2 -4 4 -10 4 -5 0 -10
-5 -10 -11z"/>
<path d="M1060 560 c0 -19 3 -21 12 -12 9 9 9 15 0 24 -9 9 -12 7 -12 -12z"/>
<path d="M1280 590 c0 -5 5 -10 11 -10 5 0 7 5 4 10 -3 6 -8 10 -11 10 -2 0
-4 -4 -4 -10z"/>
<path d="M1404 489 c-3 -6 -1 -16 5 -22 8 -8 11 -5 11 11 0 24 -5 28 -16 11z"/>
<path d="M880 489 c0 -5 5 -7 10 -4 6 3 10 8 10 11 0 2 -4 4 -10 4 -5 0 -10
-5 -10 -11z"/>
<path d="M1265 470 c-3 -5 -1 -10 4 -10 6 0 11 5 11 10 0 6 -2 10 -4 10 -3 0
-8 -4 -11 -10z"/>
</g>
</svg>
